<?xml version="1.0" encoding="UTF-8" standalone="no"?>
<!-- Created with Inkscape (http://www.inkscape.org/) -->

<svg
   xmlns:dc="http://purl.org/dc/elements/1.1/"
   xmlns:cc="http://creativecommons.org/ns#"
   xmlns:rdf="http://www.w3.org/1999/02/22-rdf-syntax-ns#"
   xmlns:svg="http://www.w3.org/2000/svg"
   xmlns="http://www.w3.org/2000/svg"
   xmlns:sodipodi="http://sodipodi.sourceforge.net/DTD/sodipodi-0.dtd"
   xmlns:inkscape="http://www.inkscape.org/namespaces/inkscape"
   width="575.86218"
   height="329.2662"
   id="svg2"
   version="1.1"
   inkscape:version="0.48.2 r9819"
   sodipodi:docname="New document 1">
  <defs
     id="defs4">
    <inkscape:perspective
       sodipodi:type="inkscape:persp3d"
       inkscape:vp_x="0 : 526.18109 : 1"
       inkscape:vp_y="0 : 1000 : 0"
       inkscape:vp_z="744.09448 : 526.18109 : 1"
       inkscape:persp3d-origin="372.04724 : 350.78739 : 1"
       id="perspective2394" />
    <inkscape:perspective
       id="perspective10"
       inkscape:persp3d-origin="372.04724 : 350.78739 : 1"
       inkscape:vp_z="744.09448 : 526.18109 : 1"
       inkscape:vp_y="0 : 1000 : 0"
       inkscape:vp_x="0 : 526.18109 : 1"
       sodipodi:type="inkscape:persp3d" />
    <inkscape:perspective
       sodipodi:type="inkscape:persp3d"
       inkscape:vp_x="0 : 526.18109 : 1"
       inkscape:vp_y="0 : 1000 : 0"
       inkscape:vp_z="744.09448 : 526.18109 : 1"
       inkscape:persp3d-origin="372.04724 : 350.78739 : 1"
       id="perspective2394-8" />
    <inkscape:perspective
       id="perspective10-8"
       inkscape:persp3d-origin="372.04724 : 350.78739 : 1"
       inkscape:vp_z="744.09448 : 526.18109 : 1"
       inkscape:vp_y="0 : 1000 : 0"
       inkscape:vp_x="0 : 526.18109 : 1"
       sodipodi:type="inkscape:persp3d" />
  </defs>
  <sodipodi:namedview
     id="base"
     pagecolor="#ffffff"
     bordercolor="#666666"
     borderopacity="1.0"
     inkscape:pageopacity="0.0"
     inkscape:pageshadow="2"
     inkscape:zoom="0.98994949"
     inkscape:cx="96.313611"
     inkscape:cy="130.21176"
     inkscape:document-units="px"
     inkscape:current-layer="layer1"
     showgrid="false"
     fit-margin-top="0"
     fit-margin-left="0"
     fit-margin-right="0"
     fit-margin-bottom="0"
     inkscape:window-width="1680"
     inkscape:window-height="988"
     inkscape:window-x="-8"
     inkscape:window-y="-8"
     inkscape:window-maximized="1" />
  <metadata
     id="metadata7">
    <rdf:RDF>
      <cc:Work
         rdf:about="">
        <dc:format>image/svg+xml</dc:format>
        <dc:type
           rdf:resource="http://purl.org/dc/dcmitype/StillImage" />
        <dc:title></dc:title>
      </cc:Work>
    </rdf:RDF>
  </metadata>
  <g
     inkscape:label="Layer 1"
     inkscape:groupmode="layer"
     id="layer1"
     transform="translate(-13.17754,-13.267019)">
    <g
       style="overflow:visible"
       id="g3480"
       transform="matrix(1.375094,0,0,1.3850499,14.164512,13.267019)">
      <path
         style="fill:#f7edcc;fill-rule:evenodd;stroke:#000000;stroke-width:0.75059998;stroke-linecap:square;stroke-miterlimit:10"
         id="path3"
         d="M 389.711,48.601 C 386.662,38.902 388.148,28.096 384.479,18.955 379.536,6.639 374.014,18.86 374.014,26.803 370.585,22.012 363.4,19.416 359.19,16.34 c -5.006,-3.658 -6.21,-3.958 -6.104,2.616 0.101,6.273 4.362,12.321 6.977,18.311 1.99,4.56 2.479,4.497 5.232,6.976 2.25,2.025 4.313,1.86 5.231,5.232 -10.042,-0.883 -20.424,7.215 -27.905,13.079 -1.852,-5.967 -8.959,-10.788 -14.824,-12.208 -3.489,-0.845 -5.237,0.607 -8.365,-1.583 -3.515,-2.46 -6.918,-4.896 -10.234,-7.609 -10.388,-8.498 -23.882,-17.24 -37.066,-20.378 -32.808,-7.81 -57.18,1.247 -85.767,17.581 -24.992,14.28 -52.246,27.277 -81.278,30.042 C 72.998,71.455 45.675,59.704 21.292,39.385 15.813,34.821 9.716,27.228 6.531,20.859 5.04,17.876 2.075,13.368 2.753,9.977 3.408,6.7 4.125,3.525 3.398,0.644 c -7.26,5.543 0.415,24.646 3.707,30.818 8.013,15.022 17.937,24.678 31.203,35.151 23.308,18.399 59.026,21.882 87.479,20.384 14.368,-0.756 28.498,-4.484 42.427,-7.877 4.141,-1.008 29.813,-9.037 23.108,4.359 -1.007,2.013 4.099,12.035 5.668,13.952 4.087,4.991 11.929,2.335 14.389,4.795 6.584,6.584 19.781,10.899 29.472,10.899 9.023,0 7.589,37.024 7.589,44.252 0,9.482 -3.313,14.542 -6.104,22.888 -4.045,12.097 7.739,13.329 16.133,16.131 5.473,1.827 14.248,9.887 18.313,13.951 6.852,6.851 14.071,12.299 20.492,19.62 2.895,3.301 6.626,6.878 11.336,6.975 1.567,0.032 3.556,-2.694 4.361,-2.616 1.329,0.128 3.187,1.856 4.36,1.744 2.249,-0.215 2.604,2.625 4.796,0.436 1.063,-1.061 0.822,-5.782 1.309,-7.41 3.99,2.037 4.493,0.117 7.848,0 5.057,-0.177 5.071,2.897 6.104,-3.489 0.713,-4.406 -3.784,-14.248 -6.54,-17.002 -12.021,-12.007 -30.652,-12.006 -44.91,-20.491 -30.53,-18.17 3.488,-47.432 3.488,-71.5 0,0.297 8.423,-1.527 9.593,-0.872 3.051,1.709 4.263,9.885 3.052,13.517 -1.256,3.769 -10.521,10.755 -13.517,11.77 5.61,6.397 14.965,2.571 21.364,0.437 11.522,-3.844 13.79,-8.715 16.134,-19.619 2.129,-9.907 11.696,-13.108 20.847,-17.029 9.972,-4.273 17.495,-14.39 21.883,-23.952 6.155,6.7 16.766,6.08 24.417,8.72 8.693,3 14.724,5.33 21.364,-1.308 6.876,-6.872 -1.481,-10.724 -6.54,-18.311 -2.744,-4.115 -4.226,-9.113 -7.849,-12.644 -3.574,-3.486 -8.546,-3.77 -10.463,-8.722"
         inkscape:connector-curvature="0" />
      <path
         style="fill:#e8cca6;fill-rule:evenodd"
         id="path5"
         d="m 370.525,49.473 c -10.042,-0.883 -20.424,7.215 -27.905,13.079 3.775,0.035 23.035,5.76 16.569,-5.232 5.408,0.719 7.682,-5.692 11.336,-7.847"
         inkscape:connector-curvature="0" />
      <path
         style="fill:#4c3305;fill-rule:evenodd"
         id="path7"
         d="m 323.437,229.095 c -1.729,5.79 -0.017,10.019 -6.977,6.539 -4.164,-2.082 -5.815,1.283 -10.465,0.436 -4.88,-0.89 -9.857,-6.159 -12.209,-10.464 3.074,2.006 16.753,9.323 17.441,2.616 4.523,6.868 10.677,-8.53 12.21,0.873"
         inkscape:connector-curvature="0" />
      <path
         style="fill:#e8cca6;fill-rule:evenodd"
         id="path9"
         d="M 188.271,37.266 C 164.246,50.994 139.085,63.131 111.532,67.784 86.705,71.976 53.908,67.297 34.793,49.473 c 5.772,10.122 22.609,15.474 33.036,18.682 13.601,4.185 26.381,5.84 40.525,4.898 13.151,-0.876 25.949,-7.035 38.736,-9.774 13.106,-2.808 28.596,-11.634 42.053,-10.318 -9.506,-0.934 -7.865,-12.205 -0.872,-15.695"
         inkscape:connector-curvature="0" />
      <path
         style="fill:none;stroke:#000000;stroke-width:0.75059998;stroke-linecap:square;stroke-miterlimit:10"
         id="path11"
         d="m 330.412,113.125 c 16.142,-6.078 31.009,-16.221 38.37,-32.262"
         inkscape:connector-curvature="0" />
      <path
         style="fill:#73592b;fill-rule:evenodd;stroke:#000000;stroke-width:0.75059998;stroke-linecap:square;stroke-miterlimit:10"
         id="path13"
         d="m 308.61,141.899 c 7.45,-2.486 13.873,-5.032 16.569,-13.079 1.766,-5.271 -0.542,-12.405 5.232,-15.695 -2.408,-0.338 -8.66,-0.673 -10.464,0 -3.633,1.356 -1.871,-1.132 -3.488,2.615 -0.824,1.91 0.759,5.773 0.872,7.849 0.279,5.113 -0.148,8.092 -2.617,12.207 -1.674,2.793 -6.087,5.701 -6.104,6.103"
         inkscape:connector-curvature="0" />
      <path
         style="fill:#73592b;fill-rule:evenodd;stroke:#000000;stroke-width:0.75059998;stroke-linecap:square;stroke-miterlimit:10"
         id="path15"
         d="m 331.284,229.095 c 10.446,6.053 4.485,-9.945 2.616,-13.952 -2.328,-4.992 -4.71,-9.765 -10.464,-12.644 -14.996,-7.501 -53.179,-10.202 -50.488,-34.386 1.582,-14.225 8.887,-27.854 13.41,-41.425 1.978,-5.932 5.54,-9.328 -0.42,-10.948 -7.114,-1.934 -7.771,3.818 -8.583,9.511 -1.797,12.572 -4.821,28.584 -9.729,40.19 -1.87,4.423 -4.114,5.252 -2.616,10.464 1.691,5.885 7.995,10.934 12.209,14.823 10.692,9.868 23.436,13.878 35.317,21.799 6.25,4.167 10.132,21.926 18.748,16.568"
         inkscape:connector-curvature="0" />
      <path
         style="fill:#73592b;fill-rule:evenodd;stroke:#4f0d05;stroke-width:0.75059998;stroke-linecap:square;stroke-miterlimit:10"
         id="path17"
         d="m 316.46,216.015 c -7.364,-8.472 -18.613,-9.791 -27.469,-15.695 -8.925,-5.95 -18.662,-13.77 -23.545,-23.541 -1.934,-3.868 -0.908,-5.792 0.436,-9.592 2.019,-5.708 3.817,-11.151 5.232,-17.439 2.282,-10.143 4.005,-24.874 8.72,-34.007 -3.442,10.887 -6.06,22.263 -10.056,32.917 -1.476,3.934 -1.806,11.206 -4.769,14.169 -2.906,2.906 -5.803,9.059 -4.797,13.079 2.157,8.625 15.525,13.885 22.46,18.351 11.263,7.252 22.525,14.505 33.788,21.758"
         inkscape:connector-curvature="0" />
      <path
         style="fill:#190000;fill-rule:evenodd"
         id="path19"
         d="m 323.437,229.095 c 1.52,0.531 8.146,0.298 8.283,0.436 3.92,3.92 5.292,-1.592 5.669,-3.925 1.067,-6.599 -4.354,-10.577 -6.104,-15.694 -1.784,6.027 4.768,10.48 0.872,18.311 -0.287,-6.02 -13.486,-8.562 -8.72,0.872"
         inkscape:connector-curvature="0" />
      <path
         style="fill:#cc9670;fill-rule:evenodd"
         id="path21"
         d="m 265.01,113.125 c -0.085,5.705 9.601,8.498 11.336,13.951 4.676,-17.414 5.458,-32.935 4.361,-50.573 -0.624,-10.042 -3.443,-21.188 -12.209,-27.031 -3.822,-2.547 -6.664,-5.231 -11.337,-5.231 -2.95,0 -4.125,0.991 -6.977,-0.436 -5.836,-2.92 -5.954,-5.524 -12.821,-4.149 -10.647,2.13 -20.323,5.288 -29.649,10.883 -11.519,6.91 3.297,13.184 1.485,20.733 -1.369,5.706 -8.559,3.301 -13.081,5.232 -1.581,-3.705 -1.362,-8.573 1.745,-11.336 -12.937,2.549 -6.92,18.019 -3.908,25.545 1.645,4.11 2.791,6.786 6.524,9.333 4.146,2.828 6.895,0.518 10.465,1.744 1.474,0.506 2.725,1.854 3.923,3.051 2.939,2.937 7.401,3.922 11.385,5.249 4.317,1.438 9.302,1.469 13.469,3.035 1.945,0.731 4.36,-1.438 4.36,1.308 0,1.88 0.432,4.712 0.871,6.54 1.97,8.189 4.361,14.169 4.361,23.059 0,8.948 0.206,17.766 -0.873,26.642 -0.914,7.519 0.046,10.308 7.85,11.336 -1.043,-14.274 -15.619,-67.459 8.72,-68.885"
         inkscape:connector-curvature="0" />
      <path
         style="fill:#73592b;fill-rule:evenodd"
         id="path23"
         d="m 251.929,126.204 c 0,18.856 2.992,37.067 4.361,55.805 -8.289,-1.093 -8.843,-4.394 -7.713,-12.289 1.434,-10.023 0.736,-20.397 0.736,-30.518 0,-7.197 -6.975,-16.67 -5.232,-23.462 3.007,-11.723 7.056,7.681 7.848,10.464"
         inkscape:connector-curvature="0" />
      <path
         style="fill:#f7edcc;fill-rule:evenodd"
         id="path25"
         d="m 270.242,50.345 c -3.077,-2.508 -6.253,-4.196 -9.593,-6.104 0.208,8.219 6.621,10.366 10.465,16.131 5.551,8.329 10.197,19.789 9.593,30.082 0,-10.526 0.023,-20.001 -3.94,-29.905 -1.721,-4.298 -6.415,-13.878 2.195,-14.564 -3.586,-0.134 -7.504,0.716 -8.72,4.36"
         inkscape:connector-curvature="0" />
      <path
         style="fill:#e8cca6;fill-rule:evenodd"
         id="path27"
         d="m 214.431,104.405 c -4.6,-5.972 -14.009,-0.111 -18.731,-9.559 -2.108,-4.217 -3.043,-8.641 -3.94,-12.24 -0.748,-2.999 0.074,-4.766 -2.616,-6.976 13.042,2.156 15.042,22.402 25.287,28.775"
         inkscape:connector-curvature="0" />
      <path
         style="fill:#cc9670;fill-rule:evenodd"
         id="path29"
         d="m 374.014,26.802 c 2.739,4.234 3.903,8.221 5.669,13.515 2.199,6.598 2.335,14.875 6.54,18.747 4.172,3.842 7.042,4.491 10.028,10.463 3.057,6.11 10.186,5.653 15.261,9.592 -3.894,2.667 -2.138,14.629 -11.337,10.027 -2.955,-1.479 -6.553,-3.762 -9.592,-4.796 -4.205,-1.431 -10.21,-0.352 -13.953,-2.616 -5.73,-3.467 -2.616,-3.837 -2.616,-9.156 0,-3.529 -0.744,-9.527 -4.36,-11.335 -7.919,-3.96 1.582,-8.048 0,-13.515 -0.905,-3.126 -3.459,-1.751 -5.231,-3.488 -2.414,-2.364 -3.021,-4.298 -4.796,-7.848 -1.754,-3.507 -3.485,-6.966 -5.232,-10.463 -1.086,-2.175 -0.018,-5.685 -1.744,-7.412 -2.051,-2.048 0.87,-4.356 1.744,-5.231 1.404,-1.406 3.543,2.136 4.796,3.052 4.208,3.077 11.394,5.674 14.823,10.464"
         inkscape:connector-curvature="0" />
      <path
         style="fill:#e8cca6;fill-rule:evenodd"
         id="path31"
         d="m 411.512,79.119 c -6.134,-4.76 -12.369,-3.816 -16.133,-11.335 -1.287,-2.571 -2.389,-5.218 -4.796,-6.976 -2.949,-2.153 -6.455,-0.533 -7.412,-4.36 -2.165,-8.656 -3.374,-16.948 -6.541,-25.286 -1.533,-4.038 -5.389,-10.303 -0.871,-14.823 9.771,-9.776 12.224,19.631 13.08,26.158 1.458,11.115 8.467,9.649 13.952,17.875 4.817,7.224 9.394,14.367 14.825,20.491 -1.124,-0.01 -1.37,0.006 -2.616,0 -0.515,-2.556 -0.898,-1.649 -2.617,-3.488 0.179,1.129 -0.32,0.994 -0.871,1.744"
         inkscape:connector-curvature="0" />
      <path
         style="fill:#f7edcc;fill-rule:evenodd"
         id="path33"
         d="m 382.734,23.314 c 0.527,3.711 6.704,15.968 3.925,18.747 -1.354,1.354 0.745,5.483 -0.437,6.54 -4.191,3.746 -4.411,-3.513 -5.232,-5.231 -3.247,-6.793 -11.465,-21.206 -2.615,-26.158 0.868,2.291 2.1,4.907 4.359,6.102"
         inkscape:connector-curvature="0" />
      <path
         style="fill:none;stroke:#000000;stroke-width:0.75059998;stroke-linecap:square;stroke-miterlimit:10"
         id="path35"
         d="M 381.862,48.601 C 381.764,40.99 377.826,32.695 374.013,26.803"
         inkscape:connector-curvature="0" />
      <path
         style="fill:#73592b;fill-rule:evenodd"
         id="path37"
         d="m 363.549,61.68 c 4.921,7.847 5.721,24.472 -5.231,27.903 4.678,-4.774 4.94,-16.741 -1.744,-20.055 4.188,-0.232 6.517,-3.89 6.975,-7.848"
         inkscape:connector-curvature="0" />
      <path
         style="fill:#cc9466;fill-rule:evenodd"
         id="path39"
         d="m 316.46,113.125 c 19.638,0.541 29.082,-8.404 38.369,-25.286 -5.722,5.719 -10.503,7.43 -17.44,10.898 -4.703,2.352 -2.956,0.237 -7.848,-1.307 -3.879,-1.225 -8.24,-2.275 -12.209,-2.616 -9.719,-0.835 -14.124,7.66 -22.673,2.616 1.77,10.172 7.849,20.172 7.849,30.518 0,3.944 -11.08,12.105 -13.953,13.078 5.936,6.769 18.806,3.002 23.981,-2.179 7.777,-7.784 2.85,-16.16 3.924,-25.722"
         inkscape:connector-curvature="0" />
      <path
         style="fill:#73592b;fill-rule:evenodd"
         id="path41"
         d="m 341.749,86.095 c -3.452,3.285 -12.525,0.548 -17.441,1.744 4.075,-2.729 5.111,-8.875 3.488,-13.08 -2.221,5.784 -17.887,10.689 -11.336,15.695 6.552,5.007 19.468,0.156 25.289,-4.359"
         inkscape:connector-curvature="0" />
      <path
         style="fill:#e8cca6;fill-rule:evenodd"
         id="path43"
         d="m 324.308,92.198 c -1.424,-0.299 -9.998,-1.306 -10.464,-2.616 -1.423,-4.006 8.748,-9.444 11.336,-10.463 -6.527,0.927 -12.188,4.562 -16.569,9.591 4.529,3.749 10.133,3.488 15.697,3.488"
         inkscape:connector-curvature="0" />
      <path
         style="fill:#f7edcc;fill-rule:evenodd"
         id="path45"
         d="m 318.203,48.601 c -20.102,-13.915 -38.396,-24.708 -63.077,-27.45 -22.847,-2.538 -45.515,7.456 -65.983,16.115 6.263,3.269 17.011,5.449 23.545,2.18 4.557,-2.279 5.975,-7.981 11.336,-10.027 -0.29,0.582 -0.581,1.163 -0.871,1.744 3.67,4.978 10.387,-2.378 16.568,-3.924 7.682,-1.92 15.322,-1.382 23.126,0.178 19.662,3.93 37.731,11.854 55.356,21.184"
         inkscape:connector-curvature="0" />
      <path
         style="fill:#73592b;fill-rule:evenodd"
         id="path47"
         d="m 282.45,61.68 c 4.179,5.142 4.102,13.973 2.616,20.055 -0.619,2.532 -3.13,6.205 -1.745,8.284 1.462,2.193 0.872,5.242 0.872,7.848 0,12.371 2.32,12.643 13.954,12.643 -1.87,-5.6 -2.993,-11.587 -4.797,-17.002 -2.068,-6.212 7.286,-10.275 13.081,-12.208 2.666,-0.889 11.771,-0.849 11.771,-4.796 0,-3.77 3.132,-7.681 6.104,-9.591 -4.631,0.861 -8.266,-1.249 -10.464,-5.232 -0.748,0.791 -0.422,0.921 -0.872,1.744 -8.45,-3.244 -25.967,9.51 -26.161,-7.848 -0.673,2.352 -1.718,5.311 -4.359,6.103"
         inkscape:connector-curvature="0" />
      <path
         style="fill:#e8cca6;fill-rule:evenodd"
         id="path49"
         d="m 295.531,66.04 c 5.191,-2.218 11.917,-4.736 17.44,-2.616 0.269,-1.086 0.091,-0.919 0.872,-1.744 -5.14,0.065 -19.346,-1.355 -18.312,4.36"
         inkscape:connector-curvature="0" />
      <path
         style="fill:none;stroke:#4c0d05;stroke-width:0.75059998;stroke-linecap:square;stroke-miterlimit:10"
         id="path51"
         d="m 317.332,106.149 c 1.472,3.114 0,15.183 0,20.055 0,7.473 -2.911,12.297 -9.593,15.695"
         inkscape:connector-curvature="0" />
      <path
         style="fill:#73332b;fill-rule:evenodd"
         id="path53"
         d="m 375.758,46.857 c -3.244,-10.462 -5.149,-20.416 -17.44,-23.543 2.377,4.218 1.764,12.227 5.232,15.696 2.995,2.995 7.487,4.416 9.592,8.719 0.358,-1.857 1.187,-0.237 2.616,-0.872"
         inkscape:connector-curvature="0" />
      <path
         style="fill:#4c0d05;fill-rule:evenodd"
         id="path55"
         d="m 375.758,46.857 c -3.244,-10.462 -5.149,-20.416 -17.44,-23.543 0.265,0.947 1.184,2.754 1.744,3.488 6.424,-2.881 14.704,14.572 15.696,20.055"
         inkscape:connector-curvature="0" />
      <path
         style="fill-rule:evenodd"
         id="path57"
         d="m 381.862,59.937 c 1.242,0.884 10.381,4.029 7.849,6.975 -3.744,4.355 -7.366,-5.62 -7.849,-6.975"
         inkscape:connector-curvature="0" />
      <path
         style="fill:#73592b;fill-rule:evenodd"
         id="path59"
         d="m 386.223,61.68 c 2.236,1.116 3.429,2.812 3.488,5.232 2.205,-2.205 2.256,-5.425 0,-7.847 -0.557,2.936 -1.809,1.455 -3.488,2.615"
         inkscape:connector-curvature="0" />
      <path
         style="fill:#190000;fill-rule:evenodd"
         id="path61"
         d="m 415.871,86.095 c -1.218,0.517 -1.827,1.275 -3.488,0.872 0.579,-0.495 1.098,-1.86 1.745,-2.616 -7.212,4.777 -3.982,-10.807 0,-3.488 -0.425,0.341 -1.944,1.331 -2.616,1.744 0.29,0.291 0.581,0.581 0.871,0.872 1.829,-5.211 7.57,-2.567 3.488,0.872 0.789,-0.466 1.018,-0.017 1.745,-0.872 -0.874,0.779 -1.134,1.648 -1.745,2.616"
         inkscape:connector-curvature="0" />
      <path
         style="fill:#e8cc75;fill-rule:evenodd"
         id="path63"
         d="m 387.095,65.167 c -0.009,-0.04 1.287,-0.478 -0.872,-0.872 -0.29,0.872 0,1.163 0.872,0.872"
         inkscape:connector-curvature="0" />
      <path
         style="fill:#e8cca6;fill-rule:evenodd"
         id="path65"
         d="m 214.431,59.064 c 6.96,7.708 17.466,12.403 27.034,15.694 -13.275,0.001 -22.242,-2.416 -27.034,-15.694"
         inkscape:connector-curvature="0" />
      <path
         style="fill:#e8cca6;fill-rule:evenodd"
         id="path67"
         d="m 210.944,79.991 c 2.222,3.717 10.606,6.104 14.823,6.104 0.966,0 3.037,4.917 4.36,6.104 1.99,1.784 6.228,2.554 8.72,3.488 -10.498,0.519 -26.781,-3.386 -27.903,-15.696"
         inkscape:connector-curvature="0" />
      <path
         style="fill:#e8cca6;fill-rule:evenodd"
         id="path69"
         d="m 393.199,89.583 c -7.663,-2.773 -18.208,-1.961 -24.417,-8.72 -11.04,19.317 -28.613,32.262 -51.45,32.262 18.109,-2.582 35.761,-14.31 46.427,-29.242 2.226,-3.116 1.706,-7.517 5.895,-7.38 2.094,0.069 4.414,4.059 6.104,5.231 5.194,3.605 14.039,2.599 17.441,7.849"
         inkscape:connector-curvature="0" />
      <path
         style="fill:#190000;fill-rule:evenodd"
         id="path71"
         d="m 299.02,134.053 c -5.014,1.401 -7.451,6.83 -10.465,6.974 3.374,-3.722 -5.074,-8.556 2.616,-13.078 0.019,4.109 2.477,2.513 4.36,0 0.147,1.391 0.83,1.905 0.871,3.488 0.819,-0.801 2.566,-1.305 3.488,-2.616 1.328,1.984 0.628,3.486 -0.87,5.232"
         inkscape:connector-curvature="0" />
      <path
         style="fill:#73592b;fill-rule:evenodd"
         id="path73"
         d="m 288.555,141.026 c 2.019,-2.227 -1.581,-6.136 -1.744,-9.59 -2.143,4.352 -0.09,7.4 1.744,9.59"
         inkscape:connector-curvature="0" />
      <path
         style="fill:#4c3305;fill-rule:evenodd"
         id="path75"
         d="m 247.568,168.058 c -1.14,6.729 -13.948,26.026 2.617,25.286 3.375,-9.62 -7.126,-16.413 -2.617,-25.286"
         inkscape:connector-curvature="0" />
      <path
         style="fill:#e8cca6;fill-rule:evenodd"
         id="path77"
         d="m 308.61,225.605 c -1.855,-5.326 -8.52,-2.926 -12.208,-4.359 -3.642,-1.415 -13.72,-8.02 -15.26,-12.643 -1.353,-4.063 -5.616,-10.85 -8.722,-13.951 -5.199,-5.193 -12.844,-5.24 -17.876,-10.028 -2.653,2.85 -11.059,-0.973 -9.593,-4.359 -5.028,4.076 -0.801,8.166 3.488,10.464 5.108,2.737 13.788,-0.167 17.441,3.487 3.074,3.076 4.445,7.458 6.976,10.464 3.745,4.448 8.962,8.088 13.113,12.239 3.432,3.432 6.485,7.815 11.304,7.815 3.725,0 7.943,-0.671 11.337,0.871"
         inkscape:connector-curvature="0" />
      <path
         style="fill:#e8cca6;fill-rule:evenodd"
         id="path79"
         d="m 279.834,49.473 c 2.103,2.521 3.61,5.763 6.977,6.103 -1.418,8.573 -8.576,4.423 -5.232,0 -2.886,-1.165 -3.513,-3.675 -1.745,-6.103"
         inkscape:connector-curvature="0" />
      <path
         style="fill:#e8b597;fill-rule:evenodd"
         id="path81"
         d="m 318.203,48.601 c 4.259,5.303 10.988,5.002 15.697,8.72 2.042,1.613 3.014,4.419 5.231,6.104 3.892,2.955 5.157,0.503 8.722,1.744 20.112,7.001 4.088,35.524 -13.081,33.134 4.327,-3.864 7.79,-8.039 7.848,-13.951 -4.343,3.376 -10.294,0.387 -14.824,2.616 0.995,-4.074 1.883,-7.916 0.872,-12.208 -0.392,-1.662 -3.204,-9.872 -6.54,-6.539 -1.893,1.891 -5.128,8.975 -6.977,9.592 -7.433,2.479 -15.763,2.185 -21.365,8.283 0.221,-4.575 -6.219,-10.322 -9.593,-7.847 -2.765,-1.561 -5.339,-16.918 -6.975,-21.799 -1.653,-4.934 -2.303,-1.769 -0.873,-6.104 0.528,-1.601 4.236,-2.4 4.361,-3.488 0.881,-7.674 -7.97,0.824 -8.722,0.872 -3.748,0.242 -8.449,-6.911 -14.824,-3.488 3.314,1.979 2.899,7.541 4.797,11.335 0.355,0.713 2.378,7.125 2.18,7.847 -1.231,4.492 -3.199,2.519 -7.412,3.924 -6.054,2.018 -27.648,-1.612 -27.469,-8.283 -5.864,-2.4 -9.053,-8.452 -13.953,-10.899 -5.043,-2.519 -9.077,2.355 -13.081,4.359 -4.737,2.371 -6.452,7.631 -10.464,10.028 -6.564,3.922 -20.524,3.817 -27.905,3.488 5.979,-4.013 10.917,-9.734 14.824,-15.695 2.172,-3.313 3.727,-7.215 6.541,-10.027 3.836,-3.834 5.038,-2.12 10.028,-0.872 5.083,1.272 14.468,3.411 18.749,-0.872 3.229,-3.23 5.275,-7.341 10.028,-9.155 -0.29,0.582 -0.581,1.163 -0.871,1.744 3.67,4.978 10.387,-2.378 16.568,-3.924 7.682,-1.92 15.322,-1.382 23.126,0.178 19.663,3.929 37.732,11.853 55.357,21.183"
         inkscape:connector-curvature="0" />
      <path
         style="fill:#cc9670;fill-rule:evenodd"
         id="path83"
         d="M 178.678,64.296 C 146.319,72.385 109.753,84.126 76.553,75.825 59.802,71.637 40.036,64.641 26.944,52.961 12.498,40.073 5.708,23.935 0.783,5.875 -2.708,44.84 42.241,74.16 74.402,81.956 c 19.882,4.819 38.066,6.552 58.5,4.283 9.547,-1.061 18.532,-3.525 27.909,-5.534 7.938,-1.701 20.553,-7.953 28.332,-5.074 -3.662,-5.762 -3.207,-15.184 1.744,-20.055 -3.232,1.467 -5.509,5.467 -8.72,6.976 1.34,-1.645 2.426,-3.395 3.488,-4.36 -2.798,1.423 -5.842,3.283 -6.977,6.104"
         inkscape:connector-curvature="0" />
      <path
         style="fill:#bfb280;fill-rule:evenodd"
         id="path85"
         d="m 299.02,109.638 c -1.946,-3.92 1.376,-4.94 4.359,-3.488 4.169,2.029 6.104,15.11 6.104,19.184 0,5.368 -8.548,19.424 -13.952,11.335 11.537,-7.765 2.671,-16.24 3.489,-27.031"
         inkscape:connector-curvature="0" />
      <path
         style="fill:#bfb280;fill-rule:evenodd"
         id="path87"
         d="m 284.193,189.856 c 9.107,13.56 27.505,11.021 37.498,20.928 1.119,-2.045 1.452,-2.119 4.361,-2.616 -5.065,-3.511 -13.011,-4.807 -19.186,-6.977 -8.232,-2.893 -15.206,-6.858 -22.673,-11.335"
         inkscape:connector-curvature="0" />
      <path
         style="fill:#bfb280;fill-rule:evenodd"
         id="path89"
         d="m 323.437,113.997 c -0.515,4.915 -7.395,14.077 -2.617,18.311 4.568,4.048 5.21,-15.602 8.722,-19.183 -2.183,0.312 -3.982,0.333 -6.105,0.872"
         inkscape:connector-curvature="0" />
      <path
         style="fill:#e8cca6;fill-rule:evenodd"
         id="path91"
         d="m 189.143,75.631 c -6.621,-2.45 -15.084,2.235 -21.605,3.633 -8.492,1.819 -16.963,4.379 -25.485,5.958 -16.822,3.119 -33.695,2.48 -50.578,0.872 19.578,1.305 37.584,-1.074 56.683,-5.232 8.64,-1.881 16.848,-3.834 25.324,-6.376 1.201,-0.36 12.434,-4.699 12.61,-4.523 1.251,1.251 2.005,3.92 3.051,5.668"
         inkscape:connector-curvature="0" />
      <path
         style="fill:#e8c28e;fill-rule:evenodd"
         id="path93"
         d="m 188.271,37.266 c 22.031,-8.975 44.503,-18.399 68.824,-15.84 12.839,1.352 23.853,5.082 35.521,10.526 10.399,4.853 18.637,13.734 29.076,18.393 -19.743,-13.82 -38.634,-30.093 -63.658,-33.134 -26.068,-3.167 -47.64,8.256 -69.763,20.055"
         inkscape:connector-curvature="0" />
      <path
         style="fill:none;stroke:#000000;stroke-width:0.75059998;stroke-linecap:square;stroke-miterlimit:10"
         id="path95"
         d="m 389.711,48.601 c -3.049,-9.699 -1.563,-20.505 -5.232,-29.646 -4.943,-12.316 -10.465,-0.095 -10.465,7.848 -3.806,-5.316 -11.043,-6.682 -15.261,-10.899 -4.349,-4.349 -8.458,-1.348 -5.668,4.796"
         inkscape:connector-curvature="0" />
      <path
         style="fill:none;stroke:#000000;stroke-width:0.75059998;stroke-linecap:square;stroke-miterlimit:10"
         id="path97"
         d="m 353.085,20.699 c 1.301,5.973 5.34,11.657 7.412,17.875 2.199,6.596 8.419,4.984 10.028,10.899 C 360.483,48.59 350.101,56.688 342.62,62.552 340.768,56.585 333.661,51.764 327.796,50.344 320.862,48.666 317.169,47.674 311.07,42.685 301.137,34.56 287.783,24.5 275.047,21.468 261.932,18.346 247.514,14.408 234.039,18.035 217.368,22.522 204.689,28.508 189.394,36.665 164.291,50.053 140.931,60.783 113.127,67.403 83.79,74.387 55.601,63.345 31.304,47.728"
         inkscape:connector-curvature="0" />
      <path
         style="fill:none;stroke:#000000;stroke-width:0.75059998;stroke-linecap:square;stroke-miterlimit:10"
         id="path99"
         d="M 31.304,47.729 C 22.989,40.8 15.994,33.902 9.341,25.349 6.371,21.531 4.501,17.029 2.979,12.464 1.722,8.693 4.312,4.264 3.398,0.644 -3.396,5.832 3.18,24.102 6.315,29.98 14.256,44.868 23.411,54.852 36.601,65.265 60.27,83.95 95.1,88.612 124.265,87.077 c 14.842,-0.782 28.82,-4.716 43.273,-7.813 10.641,-2.28 21.107,-9.151 24.221,3.343 1.035,4.152 2.418,9.195 4.78,13.919 3.409,6.82 9.703,3.648 14.406,5.264 3.013,1.035 4.521,4.836 7.848,5.667 7.13,1.781 13.551,4.543 20.929,5.668"
         inkscape:connector-curvature="0" />
      <path
         style="fill:none;stroke:#000000;stroke-width:0.75059998;stroke-linecap:square;stroke-miterlimit:10"
         id="path101"
         d="m 239.721,113.125 c 6.435,-1.868 5.066,11.002 7.412,15.694 3.712,7.429 1.308,15.844 1.308,23.761 0,9.337 -0.706,16.895 -4.812,25.101 -1.68,3.356 -3.662,8.611 -1.293,12.176 3.077,4.63 8.646,2.472 13.081,4.36 6.575,2.8 11.73,9.478 18.055,13.272 7.31,4.386 14.879,11.622 20.314,18.116 2.429,2.902 5.217,7.727 8.722,9.592 5.499,2.926 7.243,-1.098 11.336,-0.872 3.744,0.206 9.903,7.422 8.721,-1.742"
         inkscape:connector-curvature="0" />
      <path
         style="fill:none;stroke:#000000;stroke-width:0.75059998;stroke-linecap:square;stroke-miterlimit:10"
         id="path103"
         d="m 322.564,232.583 c 0.088,-1.353 0.792,-1.953 0.872,-3.488 1.527,0.847 12.38,2.484 13.952,0.872 3.435,-3.522 -2.343,-14.548 -4.796,-17.004 -3.241,-3.244 -3.769,-7.768 -9.156,-10.464 -7.383,-3.692 -15.559,-3.905 -22.674,-7.411"
         inkscape:connector-curvature="0" />
      <path
         style="fill:none;stroke:#000000;stroke-width:0.75059998;stroke-linecap:square;stroke-miterlimit:10"
         id="path105"
         d="m 300.763,195.088 c -11.69,-4.937 -27.797,-10.91 -27.905,-26.158 -0.102,-14.225 9.429,-30.286 13.953,-43.598 2.627,-7.729 0.96,-8.719 7.849,-8.719 2.107,0 4.7,-2.468 5.668,0.435 1.007,3.023 2.368,5.926 2.181,9.156 -0.342,5.889 -3.308,6.688 -6.977,9.592 -2.057,1.628 -4.357,4.343 -6.977,5.23 4.681,5.338 14.713,3.886 20.056,0.873"
         inkscape:connector-curvature="0" />
      <path
         style="fill:none;stroke:#000000;stroke-width:0.75059998;stroke-linecap:square;stroke-miterlimit:10"
         id="path107"
         d="m 308.61,141.899 c 7.45,-2.486 13.873,-5.032 16.569,-13.079 2.006,-5.987 -0.152,-11.279 5.232,-15.695 6.363,-5.218 15.879,-7.248 22.673,-12.207 6.977,-5.092 12.119,-12.259 15.697,-20.055 4.413,4.804 10.598,5.47 16.568,6.976 3.813,0.962 9.484,4.359 13.08,4.359 3.57,0 12.159,2.71 14.389,-1.744 1.665,-3.325 4.855,-4.195 4.797,-8.719"
         inkscape:connector-curvature="0" />
      <path
         style="fill:none;stroke:#000000;stroke-width:0.75059998;stroke-linecap:square;stroke-miterlimit:10"
         id="path109"
         d="M 417.616,81.735 C 416.489,77.281 407.543,69.364 404.535,64.296 400.823,58.041 392.097,54.766 389.711,48.601"
         inkscape:connector-curvature="0" />
      <path
         style="fill:none;stroke:#4c0d05;stroke-width:0.75059998;stroke-linecap:square;stroke-miterlimit:10"
         id="path111"
         d="m 313.844,233.454 c 0.054,-3.463 -1.12,-8.052 -3.488,-10.464"
         inkscape:connector-curvature="0" />
      <path
         style="fill:none;stroke:#4c0d05;stroke-width:0.75059998;stroke-linecap:square;stroke-miterlimit:10"
         id="path113"
         d="m 332.156,229.095 c -1.032,-3.441 -1.987,-6.965 -3.488,-10.464"
         inkscape:connector-curvature="0" />
      <path
         style="fill:none;stroke:#4c0d05;stroke-width:0.75059998;stroke-linecap:square;stroke-miterlimit:10"
         id="path115"
         d="m 276.346,127.076 c 3.783,-14.09 4.361,-26.289 4.361,-40.11 0,-19.923 -3.243,-31.517 -20.058,-42.725"
         inkscape:connector-curvature="0" />
      <path
         style="fill:none;stroke:#4c0d05;stroke-width:0.75059998;stroke-linecap:square;stroke-miterlimit:10"
         id="path117"
         d="m 199.606,84.351 c 3.392,6.387 8.765,16.285 14.824,20.055"
         inkscape:connector-curvature="0" />
      <path
         style="fill:none;stroke:#4c0d05;stroke-width:0.75059998;stroke-linecap:square;stroke-miterlimit:10"
         id="path119"
         d="m 299.891,115.74 c -2.939,-8.165 -4.675,-16.642 -7.411,-24.85 -1.515,-4.541 17.281,-11.225 21.364,-10.9"
         inkscape:connector-curvature="0" />
    </g>
    <g
       id="g3617"
       transform="matrix(0.50674495,0,0,0.50674495,11.799827,208.2096)">
      <g
         id="imagebot_2">
        <g
           id="imagebot_40"
           transform="matrix(0.747956,0,0,0.728128,23.4883,60.7327)">
          <path
             d="M 221.07401,131.192 C 221.092,191.7 172.04601,240.761 111.537,240.761 51.028,240.761 1.981,191.7 2,131.192 1.981,70.684 51.028,21.623 111.537,21.623 c 60.50901,0 109.555,49.061 109.53701,109.569 z"
             id="imagebot_42"
             inkscape:connector-curvature="0"
             style="fill:#939dac;stroke:#010101;stroke-width:4;stroke-linecap:round;stroke-linejoin:round" />
          <path
             d="M 220.65199,140.77901 C 199.817,186.47501 153.716,218.248 100.214,218.248 c -30.327,0 -58.251,-10.211 -80.563,-27.375 19.534,30.03 53.378,49.875 91.876,49.875 57.279,0 104.286,-43.949 109.12499,-99.96899 z"
             id="imagebot_41"
             inkscape:connector-curvature="0"
             style="fill:#010101;fill-opacity:0.3137" />
        </g>
        <title
           id="title3585">imagebot_2</title>
        <path
           d="m 163.894,186.198 c -18.383,-2.926 -1.559,12.847 -4.378,18.55 -11.143,-4.692 -6.897,10.84 -11.937,15.155 -9.548,-0.438 -11.038,7.805 -17.699,10.219 -8.049,-3.823 -13.983,3.749 -21.667,3.749 -7.684,0 -12.2311,-7.275 -21.6669,-3.749 -6.6609,-2.414 -8.1513,-10.36 -17.6996,-10.219 -5.0392,-4.315 -4.2618,-20.737 -11.9367,-15.155 -2.8189,-5.703 10.1902,-22.663 -4.3779,-18.55 0,-6.58 15.4335,-18.788 4.3779,-18.552 2.8189,-5.703 16.9565,-9.949 11.9367,-15.154 10.0782,-8.629 23.9985,-13.968 39.3665,-13.968 15.367,0 29.288,5.339 39.366,13.968 -7.447,3.127 9.119,9.451 11.937,15.154 -12.443,-0.533 4.378,11.972 4.378,18.552 z"
           stroke-miterlimit="4"
           id="imagebot_160"
           inkscape:connector-curvature="0"
           style="fill:#cccccc;fill-rule:nonzero;stroke:#000000;stroke-width:4.41175985;stroke-linecap:round;stroke-linejoin:round;stroke-miterlimit:4" />
      </g>
      <g
         id="imagebot_175"
         display="inline"
         style="display:inline">
        <title
           id="title3591">Layer 2</title>
        <path
           d="m 24.556,228.991 c -0.006,20.84199 16.887,23.49701 37.729,23.49701 20.842,0 37.735,-2.65502 37.729,-23.49701 C 100.02,208.14999 82.416,196.645 62.285,191.252 30.967,182.86 24.55,208.14999 24.556,228.991 z"
           id="imagebot_176"
           inkscape:connector-curvature="0"
           style="fill:#939dac;stroke:#010101;stroke-width:4;stroke-linecap:round;stroke-linejoin:round" />
        <path
           d="m 91.653,240.745 c 1.51,5.63 -2.987,7.604 -8.773,9.154 -5.786,1.55001 -10.667,2.08901 -12.174,-3.54201 -1.511,-5.63099 0.956,-18.45199 6.741,-20.00299 5.785,-1.55101 12.698,8.75901 14.206,14.391 z"
           id="imagebot_177"
           transform="matrix(0.96592583,-0.25881905,-0.25881905,-0.96592583,64.510654,490.00555)"
           inkscape:connector-curvature="0"
           style="fill:#cccccc;stroke:#010101;stroke-width:4;stroke-linecap:round;stroke-linejoin:round" />
        <path
           d="m 53.571,246.84399 c -1.507,5.63201 -6.389,5.09201 -12.174,3.543 -5.786,-1.55099 -10.284,-3.52499 -8.773,-9.155 1.507,-5.63099 8.42,-17.93998 14.206,-16.38999 5.785,1.55 8.251,16.371 6.741,22.00199 z"
           id="imagebot_178"
           transform="matrix(0.99254615,0.12186934,0.12186934,-0.99254615,-28.691672,469.10469)"
           inkscape:connector-curvature="0"
           style="fill:#cccccc;stroke:#010101;stroke-width:4;stroke-linecap:round;stroke-linejoin:round" />
        <path
           d="m 72.209,245.91701 c 0.002,5.82899 -4.853,6.571 -10.843,6.571 -5.989,0 -10.844,-0.74201 -10.842,-6.571 -0.002,-5.83 3.853,-19.55701 9.842,-19.55701 5.99,0 11.845,13.726 11.843,19.55701 z"
           id="imagebot_179"
           transform="matrix(1,0,0,-1,0,478.848)"
           inkscape:connector-curvature="0"
           style="fill:#cccccc;stroke:#010101;stroke-width:4;stroke-linecap:round;stroke-linejoin:round" />
        <path
           d="m 74.227,195.378 c 5.162,6.766 8.33,15.213 8.328,25.644 0.006,24.649 -16.893,27.798 -37.734,27.798 -3.225,0 -6.345,-0.097 -9.333,-0.315 6.836,3.318 16.312,3.991 26.793,3.991 20.841,0 37.74,-2.677 37.733,-23.519 0.005,-16.562 -11.119,-27.209 -25.787,-33.599 z"
           id="imagebot_180"
           inkscape:connector-curvature="0"
           style="fill:#010101;fill-opacity:0.3137" />
        <path
           d="m 196.537,230.991 c 0.006,20.84199 -16.88701,23.49701 -37.729,23.49701 -20.842,0 -37.735,-2.65502 -37.729,-23.49701 -0.007,-20.84101 17.598,-32.346 37.729,-37.739 31.319,-8.392 37.735,16.89799 37.729,37.739 z"
           transform="translate(-1.981,-2)"
           id="imagebot_181"
           inkscape:connector-curvature="0"
           style="fill:#939dac;stroke:#010101;stroke-width:4;stroke-linecap:round;stroke-linejoin:round" />
        <path
           d="m 187.11501,240.745 c 1.50999,5.63 -2.987,7.604 -8.77301,9.154 -5.78499,1.551 -10.66601,2.08901 -12.174,-3.54201 -1.511,-5.63099 1.95599,-18.45199 7.741,-20.00299 5.785,-1.55101 11.69799,8.75901 13.20601,14.391 z"
           id="imagebot_182"
           transform="matrix(1,0,0,-1,0,477.142)"
           inkscape:connector-curvature="0"
           style="fill:#cccccc;stroke:#010101;stroke-width:4;stroke-linecap:round;stroke-linejoin:round" />
        <path
           d="m 149.033,246.84399 c -1.50801,5.63201 -6.389,5.09201 -12.175,3.543 -5.785,-1.55099 -10.283,-3.52499 -8.772,-9.155 1.50799,-5.63099 7.421,-15.93998 13.20601,-14.38999 5.78399,1.55 9.25,14.371 7.74099,20.00199 z"
           id="imagebot_183"
           transform="matrix(1,0,0,-1,0.001,478.118)"
           inkscape:connector-curvature="0"
           style="fill:#cccccc;stroke:#010101;stroke-width:4;stroke-linecap:round;stroke-linejoin:round" />
        <path
           d="m 167.67,245.91701 c 0.002,5.82899 -4.853,6.571 -10.843,6.571 -5.989,0 -10.84501,-0.74201 -10.84301,-6.571 -0.002,-5.83 4.85401,-20.55701 10.84301,-20.55701 5.99099,0 10.845,14.726 10.843,20.55701 z"
           id="imagebot_184"
           transform="matrix(1,0,0,-1,0,477.848)"
           inkscape:connector-curvature="0"
           style="fill:#cccccc;stroke:#010101;stroke-width:4;stroke-linecap:round;stroke-linejoin:round" />
        <path
           d="m 175.828,192.16 c 9.705,7.491 12.26599,22.672 12.263,36.068 0.006,21.56601 -17.468,24.32299 -39.026,24.32299 -4.679,0 -9.14,-0.151 -13.296,-0.57398 6.37201,2.03999 14.35499,2.498 23.03,2.498 20.84201,0 37.74,-2.64801 37.734,-23.49001 0.004,-16.328 -3.938,-35.37199 -20.705,-38.825 z"
           transform="translate(-1.981,-2)"
           id="imagebot_185"
           inkscape:connector-curvature="0"
           style="fill:#010101;fill-opacity:0.3137" />
        <path
           d="m 170.55499,82.1602 c 0.012,37.7918 -30.62199,68.43379 -68.41399,68.43379 -37.7915,0 -68.4246,-30.64299 -68.4127,-68.43379 -0.0119,-37.792 30.6212,-68.4337 68.4127,-68.4337 37.792,0 68.426,30.6417 68.41399,68.4337 z"
           transform="translate(7.019,38)"
           id="imagebot_186"
           inkscape:connector-curvature="0"
           style="fill:#010101;fill-opacity:0.3137" />
        <path
           d="M 201.268,65.672 C 208.545,61.107 218.389,37.026 218.389,27.809 218.389,13.564 198.823,1 184.581,1 175.765,1 159.02,4.459 154.368,11.212 142.571,6.337 127.561,3.623 108.546,3.623 90.485,3.623 76.004,6.175 64.444,10.767 59.76,4.261 46.154,0 37.532,0 23.289,0 4.723,20.564 4.723,34.809 c 9.028,62.797 28.274,35.596 28.279,51.383 -0.001,2.9879 0.1066,5.9562 0.3207,8.8955 1.3855,11.5945 1.9156,14.4285 2.5485,17.2155 0.6329,2.786 1.3686,5.526 2.2052,8.209 -2.9428,-10.958 -1.6732,-5.366 0,0 3.4595,5.695 6.7816,10.845 9.9935,15.497 3.2118,4.652 6.3133,8.807 9.3314,12.512 3.0182,3.704 5.9529,6.958 8.8313,9.809 2.8783,2.851 5.7002,5.299 8.4926,7.391 2.7925,2.092 5.5554,3.828 8.3159,5.255 2.7605,1.427 5.5184,2.546 8.3008,3.403 2.7824,0.857 5.5892,1.452 8.4474,1.834 2.8577,0.381 9.7677,0.548 12.7557,0.548 5.976,0 10.56,-0.777 14.758,-2.232 4.197,-1.453 8.008,-3.584 12.435,-6.29 2.214,-1.353 4.332,-2.85 6.355,-4.478 2.024,-1.628 3.951,-3.388 5.785,-5.266 3.668,-3.757 6.957,-7.987 9.872,-12.591 1.457,-2.302 3.322,-4.698 5.093,-7.174 1.772,-2.476 3.451,-5.033 4.537,-7.658 2.173,-5.25 1.977,-10.773 3.416,-16.467 1.439,-5.694 2.513,-11.559 3.227,-17.4952 0.714,-5.9358 1.068,-11.942 1.066,-17.9178 9.071,-4.237 14.38,-6.592 17.539,-8.4003 3.159,-1.8082 4.169,-3.0697 4.64,-5.1197 z"
           id="imagebot_187"
           inkscape:connector-curvature="0"
           style="fill:#939dac;stroke:#010101;stroke-width:4;stroke-linecap:round;stroke-linejoin:round" />
        <path
           d="m 125.889,55.4074 c 0.003,9.5584 -7.745,17.3081 -17.303,17.3081 -9.5593,0 -17.3067,-7.7497 -17.3037,-17.3081 -0.003,-9.5585 7.7452,-17.3082 17.3037,-17.3082 9.558,-8e-4 17.306,7.7497 17.303,17.3082 z"
           id="imagebot_188"
           transform="translate(30.019,21)"
           inkscape:connector-curvature="0"
           style="fill:#ffffff;stroke:#010101;stroke-width:4;stroke-linecap:round;stroke-linejoin:round" />
        <path
           d="m 218.341,77.0114 c 0.003,6.6157 -5.36,11.9806 -11.97599,11.9806 -6.61602,0 -11.97901,-5.3649 -11.97701,-11.9806 -0.002,-6.6157 5.36099,-11.9806 11.97701,-11.9806 6.61599,0 11.97898,5.3649 11.97599,11.9806 z"
           transform="translate(-67.981,0)"
           id="imagebot_189"
           inkscape:connector-curvature="0"
           style="fill:#010101" />
        <path
           d="m 134.887,45.113 c 0.003,9.4597 -7.666,17.1294 -17.125,17.1294 -9.459,0 -17.127,-7.6697 -17.125,-17.1294 -0.002,-9.4598 7.666,-17.1295 17.125,-17.1295 9.459,0 17.128,7.6697 17.125,17.1295 z"
           id="imagebot_190"
           transform="translate(-43.981,32)"
           inkscape:connector-curvature="0"
           style="fill:#ffffff;stroke:#010101;stroke-width:4;stroke-linecap:round;stroke-linejoin:round" />
        <path
           d="m 123.45,80.1071 c 0.004,6.8228 -5.528,12.3555 -12.35,12.3555 -6.823,0 -12.3542,-5.5327 -12.3526,-12.3555 -0.0016,-6.8228 5.5296,-12.3556 12.3526,-12.3556 6.822,0 12.354,5.5328 12.35,12.3556 z"
           transform="translate(-36.981,-3)"
           id="imagebot_191"
           inkscape:connector-curvature="0"
           style="fill:#010101" />
        <path
           d="m 428.26401,490.711 c 10.20498,-3.513 20.74698,5.78 22.763,10.80801 -10.29901,-2.63202 -15.03,-3.37402 -17.69702,-1.05301 1.14801,2.57001 13.268,5.13901 17.02502,22.00598 -9.47302,-6.56799 -16.99902,-14.15798 -20.02402,-11.03897 2.19602,3.83597 4.72501,11.04898 3.021,18.20096 -5.444,-7.18298 -11.00501,-14.76996 -16.11398,-14.97497"
           stroke-miterlimit="4"
           transform="matrix(0.62932039,-0.77714596,0.77714596,0.62932039,-482.9661,51.580132)"
           id="imagebot_192"
           inkscape:connector-curvature="0"
           style="fill:#cccccc;fill-rule:evenodd;stroke:#000000;stroke-width:5;stroke-linecap:round;stroke-linejoin:round;stroke-miterlimit:4" />
        <path
           d="M 116.424,141.24 A 21.392393,30.561231 0 1 1 93.1756,89.9285 21.392393,30.561231 0 1 1 116.424,141.24 z"
           stroke-miterlimit="4"
           id="imagebot_193"
           transform="matrix(0.9998477,0.01745241,-0.01745241,0.9998477,3.0331805,-1.8114082)"
           inkscape:connector-curvature="0"
           style="fill:#000000;fill-rule:nonzero;stroke:#000000;stroke-width:3.16929007;stroke-linecap:round;stroke-miterlimit:4" />
        <path
           d="m 428.26401,490.711 c 10.20498,-3.513 20.74698,5.78 22.763,10.80801 -10.29901,-2.63202 -15.03,-3.37402 -17.69702,-1.05301 1.14801,2.57001 13.268,5.13901 17.02502,22.00598 -9.47302,-6.56799 -16.99902,-14.15798 -20.02402,-11.03897 2.19602,3.83597 4.72501,11.04898 3.021,18.20096 -5.444,-7.18298 -11.00501,-14.76996 -16.11398,-14.97497"
           stroke-miterlimit="4"
           transform="matrix(-0.54463904,-0.83867057,-0.83867057,0.54463904,697.40699,121.45918)"
           id="imagebot_194"
           inkscape:connector-curvature="0"
           style="fill:#cccccc;fill-rule:evenodd;stroke:#000000;stroke-width:5;stroke-linecap:round;stroke-linejoin:round;stroke-miterlimit:4" />
        <path
           d="m 80.1278,28.8291 c 0.0039,14.7438 -9.9012,26.6981 -22.1207,26.6981 -12.2194,0 -22.1242,-11.9547 -22.1204,-26.6981 -0.0038,-14.7437 9.901,-26.69797 22.1204,-26.69797 12.2195,0 22.1246,11.95427 22.1207,26.69797 z"
           id="imagebot_196"
           transform="matrix(0.99939083,0.0348995,-0.0348995,0.99939083,52.060454,93.993147)"
           inkscape:connector-curvature="0"
           style="fill:#010101;fill-opacity:0.3137" />
      </g>
    </g>
    <g
       transform="matrix(0.60541495,0,0,0.60541495,36.526939,122.75194)"
       id="layer1-4"
       inkscape:label="Camada 1">
      <g
         id="g3216">
        <path
           style="fill:#6f5b48;fill-opacity:1;stroke:none"
           d="m 245.35715,293.80645 c 2.22155,2.24233 4.62225,4.58611 5.32096,7.81464 0.77135,3.56422 1.33263,7.20106 2.87273,10.55777 2.61591,5.70146 5.15473,11.45769 8.18248,16.95649 1.31905,2.39558 3.1359,4.51551 5.5718,5.83312 2.25653,1.22058 5.02417,2.36502 7.51489,1.13708 1.95379,-0.78576 3.77926,-1.86189 5.53714,-3.01339 l 0.35714,-1.44426 18.57143,0 C 295.48201,303.40996 297.22905,268.8283 255,284.50504 l -9.64285,9.30141 z"
           id="path3205"
           sodipodi:nodetypes="csssscscccc"
           inkscape:connector-curvature="0" />
        <path
           style="fill:#6f5b48;fill-opacity:1;stroke:#31281f;stroke-width:5;stroke-miterlimit:4;stroke-opacity:1;stroke-dasharray:none;stroke-dashoffset:0"
           d="m 193.57143,274.50504 c 0.26176,-18.76791 -1.51534,-38.33557 6.05248,-56.07727 3.25666,-7.63477 4.19232,-15.78854 4.81765,-24.05265 0.40537,-5.35719 -0.25474,-11.5613 2.17093,-16.15321 3.30216,-6.25115 8.84096,-15.46435 14.81608,-15.14543 6.31607,0.33711 8.64552,12.28807 13.57143,17.14283 3.14264,3.09724 6.82936,-5.03695 10.9898,-7.32652 13.01774,-7.16393 26.25039,-14.67672 40.21166,-20.45489 23.91754,-9.89879 49.36477,-25.95921 74.64462,-32.35426 10.57428,-2.67498 22.59631,-3.21832 31.37237,-1.57048 8.77606,1.64784 15.16487,3.55357 21.86672,6.96407 41.42349,21.08 67.3099,53.37515 80.91483,69.74208 9.58826,11.19715 7.10816,35.01724 2.29267,48.77704 -3.74314,10.69565 -10.63919,20.03601 -12.61973,31.51921 -2.02278,11.72813 -5.67045,23.08682 -9.73322,34.28909 -2.10109,5.79333 -5.6496,11.14275 -10.65401,13.27183 -6.53516,2.78031 -14.71753,0.34285 -22.05292,-1.6175 -11.82726,-3.16078 -11.55304,-15.02276 -13.40783,-24.972 -0.89696,-4.8114 0.0409,-13.31213 -4.53925,-14.1248 -5.12018,-0.90849 -11.6664,3.65384 -16.86297,5.65161 -4.35124,6.03345 -7.70139,13.88069 -13.87698,17.78723 -5.30098,3.35328 -11.55755,4.73879 -17.87448,3.70402 -3.75531,-0.61515 -10.96204,1.7044 -10.60038,-4.35133 0.33341,-5.58262 5.78532,-13.50895 4.21481,-15.64867 -1.57095,-2.14033 -12.49424,-0.17644 -15.10717,6.26789 -5.23058,12.90029 -13.49991,24.40621 -21.32139,35.87496 -7.38761,10.83257 -21.72194,23.47909 -35.7143,24.28573 -4.45708,-0.4983 -13.92163,-5.70045 -13.92163,-5.70045 -5.08171,-6.75396 -3.19253,-15.35733 -1.46448,-22.97392 2.25046,-9.91913 3.79348,-20.04155 5.38611,-30.03477 0.67943,-4.26322 -4.50819,-10.15604 -7.88036,-9.5989 -8.33322,1.37678 -16.65709,5.57212 -25.69106,5.4509 -7.76138,-0.10415 -15.16006,3.44684 -21.01246,8.95281 -3.7863,3.56218 -8.27598,5.72901 -13.79828,5.90011 -4.60843,0.14279 -8.58318,1.23668 -13.27566,-0.40554 -4.86056,-1.70105 -8.56623,-3.29349 -9.05646,-8.73312 -2.43732,-7.13398 -5.51032,-14.42612 -3.1782,-22.03829 0.22142,-0.72272 0.31051,-1.491 0.32106,-2.24741 z"
           id="path2400"
           sodipodi:nodetypes="csssssssszscssssssscssssssccssssssscss"
           inkscape:connector-curvature="0" />
        <path
           style="fill:none;stroke:#31281f;stroke-width:5;stroke-miterlimit:4;stroke-opacity:1;stroke-dasharray:none;stroke-dashoffset:0"
           d="m 245.71429,294.50504 c 2.22155,2.24233 4.62225,4.58611 5.32096,7.81464 0.77135,3.56422 1.33263,7.20106 2.87273,10.55777 2.61591,5.70146 5.15473,11.45769 8.18248,16.95649 1.31905,2.39558 3.1359,4.51551 5.5718,5.83312 2.25653,1.22058 5.02417,2.36502 7.51489,1.13708 1.95379,-0.78576 3.77926,-1.86189 5.53714,-3.01339"
           id="path3172"
           sodipodi:nodetypes="csssscs"
           inkscape:connector-curvature="0" />
        <path
           style="fill:none;stroke:#31281f;stroke-width:5;stroke-miterlimit:4;stroke-opacity:1;stroke-dasharray:none;stroke-dashoffset:0"
           d="m 355.04333,247.78061 c 0,0 4.77598,9.77115 5,14.28571 0.349,7.03305 0.87395,14.38946 0,21.42857 -0.30889,2.4879 -4.37237,9.62492 -4.37237,9.62492"
           id="path3174"
           sodipodi:nodetypes="cssc"
           inkscape:connector-curvature="0" />
        <path
           style="fill:none;stroke:#31281f;stroke-width:4;stroke-miterlimit:4;stroke-opacity:1;stroke-dasharray:none;stroke-dashoffset:0"
           d="m 277.14285,240.93361 c -0.21854,5.6212 0.88527,11.44393 -0.38274,16.89901 -1.23794,5.32567 -2.55611,10.9555 -6.12468,15.23789 -4.83995,5.80807 -5.37828,14.23002 -9.92114,20.00597"
           id="path3176"
           sodipodi:nodetypes="cssc"
           inkscape:connector-curvature="0" />
        <path
           style="fill:none;stroke:#31281f;stroke-width:5;stroke-miterlimit:4;stroke-opacity:1;stroke-dasharray:none;stroke-dashoffset:0"
           d="m 218.94653,202.61472 c 0,0 -7.32249,7.2268 -10,10.71429 -2.46216,3.20698 -5.39284,7.7838 -7.14286,11.42857 -1.96535,4.09325 -3.23112,10.1038 -5,14.28571 -0.74666,1.76521 -2.85714,5.71429 -2.85714,5.71429"
           id="path3178"
           sodipodi:nodetypes="csssc"
           inkscape:connector-curvature="0" />
        <path
           style="fill:#554537;fill-opacity:1;stroke:#31281f;stroke-width:5;stroke-miterlimit:4;stroke-opacity:1;stroke-dasharray:none;stroke-dashoffset:0"
           d="m 220,272.36218 c -2.13116,-0.4834 -2.79131,-5.48604 -1.42857,-7.14286 1.54123,-1.87382 5.06393,-3.15349 7.14286,-2.85714 1.19176,0.16988 0.0145,5.11525 -0.79723,6.66453 -0.81176,1.54928 -2.82729,3.80949 -4.91706,3.33547 z"
           id="path3180"
           sodipodi:nodetypes="csszs"
           inkscape:connector-curvature="0" />
        <path
           style="fill:none;stroke:#31281f;stroke-width:5;stroke-miterlimit:4;stroke-opacity:1;stroke-dasharray:none;stroke-dashoffset:0"
           d="m 210.71429,288.07647 c 0,0 6.58019,1.77315 9.28571,2.85714 2.66871,1.06924 8.57143,4.28571 8.57143,4.28571"
           id="path3182"
           sodipodi:nodetypes="csc"
           inkscape:connector-curvature="0" />
        <path
           style="fill:none;stroke:#31281f;stroke-width:5;stroke-miterlimit:4;stroke-opacity:1;stroke-dasharray:none;stroke-dashoffset:0"
           d="m 195,293.07648 c 2.88697,0.48628 6.30016,0.15448 8.44853,2.55849 2.02205,2.12617 0.55498,5.01462 0.84801,7.54331 -0.0837,2.6051 -3.41424,1.2912 -5.01083,2.04105"
           id="path3184"
           inkscape:connector-curvature="0" />
        <path
           style="fill:none;stroke:#31281f;stroke-width:5;stroke-miterlimit:4;stroke-opacity:1;stroke-dasharray:none;stroke-dashoffset:0"
           d="m 249.28571,195.21931 c 3.92561,-3.42139 9.26913,-5.22794 14.61044,-4.67318 3.33291,0.34616 5.83412,2.76324 6.65611,5.49578 0.91183,3.03117 -0.23805,6.41205 0.16374,9.57999 0.45724,3.60519 -0.66287,4.81052 -3.57315,6.74028"
           id="path3186"
           sodipodi:nodetypes="csssc"
           inkscape:connector-curvature="0" />
        <path
           style="fill:none;stroke:#31281f;stroke-width:5;stroke-miterlimit:4;stroke-opacity:1;stroke-dasharray:none;stroke-dashoffset:0"
           d="m 440.41841,267.02299 c 0,0 -5.30846,6.67411 -7.85715,9.28572 -1.80219,1.84669 -6.42857,5.71428 -6.42857,5.71428"
           id="path3188"
           sodipodi:nodetypes="csc"
           inkscape:connector-curvature="0" />
        <path
           style="fill:none;stroke:#31281f;stroke-width:5;stroke-miterlimit:4;stroke-opacity:1;stroke-dasharray:none;stroke-dashoffset:0"
           d="m 367.07567,288.63401 c 0,0 10.84572,-0.89863 15.50315,-1.13402 4.64282,-0.23465 10.84373,-0.5923 15.48977,-0.43349 2.65987,0.0909 8.83028,0.85313 8.83028,0.85313"
           id="path3190"
           sodipodi:nodetypes="cssc"
           inkscape:connector-curvature="0" />
        <path
           style="fill:none;stroke:#31281f;stroke-width:5;stroke-miterlimit:4;stroke-opacity:1;stroke-dasharray:none;stroke-dashoffset:0"
           d="m 294.17551,275.09606 c 0,0 -2.20086,8.23891 -3.49429,11.65115 -0.91458,2.41282 -3.61111,7.80637 -3.61111,7.80637"
           id="path3214"
           sodipodi:nodetypes="csc"
           inkscape:connector-curvature="0" />
      </g>
    </g>
  </g>
  <g
     inkscape:groupmode="layer"
     id="layer2"
     inkscape:label="Wombat"
     transform="translate(-13.17754,-13.267019)" />
</svg>
